<svg width="48" height="48" viewBox="0 0 48 48" fill="none" xmlns="http://www.w3.org/2000/svg">
<path d="M0 5C0 2.23858 2.23858 0 5 0H43C45.7614 0 48 2.23858 48 5V43C48 45.7614 45.7614 48 43 48H5C2.23858 48 0 45.7614 0 43V5Z" fill="#FA991C"/>
<circle cx="24" cy="26" r="16" fill="#FA991D" stroke="white" stroke-width="2"/>
<path d="M9.13371 14.9179L13.1971 17.8314L10.8663 21.0821L6.80288 18.1686L9.13371 14.9179Z" fill="#FA991D"/>
<path d="M10.7063 12.2903L10.6929 16.6832" stroke="white" stroke-width="2" stroke-linecap="round"/>
<path d="M10.6665 16.8069L15.7742 16.6774" stroke="white" stroke-width="2" stroke-linecap="round"/>
<path d="M12 16C17.7416 8.35285 29.9981 7.65476 36.5 16" stroke="white" stroke-width="2" stroke-linecap="round"/>
<path d="M26.6972 28.1231L26.9768 28.3208L27.2621 28.1316C28.9494 27.0132 30.0926 26.5768 30.8479 26.5094C31.2157 26.4766 31.4746 26.5328 31.661 26.6243C31.8463 26.7152 31.9934 26.8574 32.1125 27.0515C32.3629 27.4597 32.467 28.0605 32.4929 28.7117C32.5055 29.0283 32.4993 29.3392 32.4895 29.6216C32.4867 29.703 32.4834 29.7843 32.4802 29.8635C32.4728 30.0483 32.4658 30.2217 32.4658 30.3574C32.4658 30.5586 32.3757 30.7886 32.1347 31.0403C31.8913 31.2946 31.5153 31.5464 31.0122 31.7687C30.0074 32.2127 28.5843 32.5 26.9859 32.5C25.3874 32.5 23.9643 32.2127 22.9595 31.7687C22.4564 31.5464 22.0804 31.2946 21.8371 31.0403C21.5961 30.7886 21.5059 30.5586 21.5059 30.3574C21.5059 30.2723 21.5047 30.1776 21.5033 30.0751C21.4985 29.7071 21.4924 29.2373 21.5373 28.7364C21.5953 28.0897 21.7332 27.4828 22.0097 27.0668C22.1425 26.8669 22.3019 26.7194 22.4959 26.6255C22.6895 26.5319 22.9482 26.4769 23.303 26.5093C24.0322 26.5759 25.1192 27.0074 26.6972 28.1231Z" fill="white" stroke="#FA991D"/>
<path d="M26.6972 25.1231L26.9768 25.3208L27.2621 25.1316C28.9494 24.0132 30.0926 23.5768 30.8479 23.5094C31.2157 23.4766 31.4746 23.5328 31.661 23.6243C31.8463 23.7152 31.9934 23.8574 32.1125 24.0515C32.3629 24.4597 32.467 25.0605 32.4929 25.7117C32.5055 26.0283 32.4993 26.3392 32.4895 26.6216C32.4867 26.703 32.4834 26.7843 32.4802 26.8635C32.4728 27.0483 32.4658 27.2217 32.4658 27.3574C32.4658 27.5586 32.3757 27.7886 32.1347 28.0403C31.8913 28.2946 31.5153 28.5464 31.0122 28.7687C30.0074 29.2127 28.5843 29.5 26.9859 29.5C25.3874 29.5 23.9643 29.2127 22.9595 28.7687C22.4564 28.5464 22.0804 28.2946 21.8371 28.0403C21.5961 27.7886 21.5059 27.5586 21.5059 27.3574C21.5059 27.2723 21.5047 27.1776 21.5033 27.0751C21.4985 26.7071 21.4924 26.2373 21.5373 25.7364C21.5953 25.0897 21.7332 24.4828 22.0097 24.0668C22.1425 23.8669 22.3019 23.7194 22.4959 23.6255C22.6895 23.5319 22.9482 23.4769 23.303 23.5093C24.0322 23.5759 25.1192 24.0074 26.6972 25.1231Z" fill="white" stroke="#FA991D"/>
<path d="M26.6716 21.3488L26.9759 21.5947L27.2878 21.3584C28.9783 20.0777 30.1147 19.5859 30.8542 19.5105C31.21 19.4742 31.4573 19.5359 31.6367 19.6366C31.8187 19.7386 31.9716 19.9037 32.0981 20.1394C32.3612 20.6296 32.4666 21.3423 32.4928 22.0938C32.51 22.5863 32.4943 23.0199 32.4806 23.3958C32.4729 23.609 32.4658 23.8036 32.4658 23.9799C32.4658 24.5251 32.0161 25.1504 30.9889 25.6691C29.9903 26.1735 28.5757 26.5 26.9859 26.5C25.396 26.5 23.9815 26.1735 22.9828 25.6691C21.9556 25.1504 21.5059 24.5251 21.5059 23.9799C21.5059 23.8849 21.5047 23.7785 21.5034 23.6626C21.4985 23.2417 21.4923 22.6955 21.5378 22.1154C21.5964 21.3678 21.7369 20.6505 22.0255 20.1543C22.1652 19.9139 22.3295 19.7434 22.5201 19.6381C22.707 19.5348 22.9541 19.4746 23.2966 19.5103C24.0093 19.5847 25.0898 20.0706 26.6716 21.3488Z" fill="white" stroke="#FA991D"/>
<path d="M32.5 21C32.5 21.537 32.0517 22.1578 31.019 22.6741C30.0163 23.1755 28.5961 23.5 27 23.5C25.4039 23.5 23.9837 23.1755 22.981 22.6741C21.9483 22.1578 21.5 21.537 21.5 21C21.5 20.463 21.9483 19.8422 22.981 19.3259C23.9837 18.8245 25.4039 18.5 27 18.5C28.5961 18.5 30.0163 18.8245 31.019 19.3259C32.0517 19.8422 32.5 20.463 32.5 21Z" fill="white" stroke="#FA991D"/>
<path d="M28.25 28C28.25 31.4518 25.4518 34.25 22 34.25C18.5482 34.25 15.75 31.4518 15.75 28C15.75 24.5482 18.5482 21.75 22 21.75C25.4518 21.75 28.25 24.5482 28.25 28Z" fill="#FA991D" stroke="white" stroke-width="1.5"/>
<path d="M21.9446 29.406C22.0046 29.494 22.0346 29.58 22.0346 29.664C22.0346 29.776 21.9886 29.868 21.8966 29.94C21.8086 30.012 21.7046 30.048 21.5846 30.048C21.5086 30.048 21.4346 30.03 21.3626 29.994C21.2906 29.958 21.2306 29.902 21.1826 29.826L20.3906 28.65C20.3226 28.546 20.2506 28.472 20.1746 28.428C20.0986 28.38 20.0026 28.356 19.8866 28.356H19.4006V29.568C19.4006 29.712 19.3586 29.826 19.2746 29.91C19.1946 29.994 19.0846 30.036 18.9446 30.036C18.8006 30.036 18.6866 29.994 18.6026 29.91C18.5186 29.826 18.4766 29.712 18.4766 29.568V26.208C18.4766 26.068 18.5146 25.96 18.5906 25.884C18.6666 25.808 18.7746 25.77 18.9146 25.77H20.4206C20.9166 25.77 21.2906 25.88 21.5426 26.1C21.7986 26.316 21.9266 26.63 21.9266 27.042C21.9266 27.366 21.8366 27.636 21.6566 27.852C21.4766 28.068 21.2226 28.21 20.8946 28.278C21.0146 28.302 21.1206 28.35 21.2126 28.422C21.3086 28.49 21.4006 28.59 21.4886 28.722L21.9446 29.406ZM20.2826 27.648C20.5506 27.648 20.7446 27.602 20.8646 27.51C20.9846 27.414 21.0446 27.266 21.0446 27.066C21.0446 26.862 20.9846 26.714 20.8646 26.622C20.7446 26.53 20.5506 26.484 20.2826 26.484H19.3886V27.648H20.2826ZM24.4357 26.982C24.6877 26.982 24.9117 27.048 25.1077 27.18C25.3077 27.308 25.4617 27.49 25.5697 27.726C25.6817 27.958 25.7377 28.226 25.7377 28.53C25.7377 28.834 25.6817 29.102 25.5697 29.334C25.4617 29.562 25.3097 29.738 25.1137 29.862C24.9177 29.986 24.6917 30.048 24.4357 30.048C24.2357 30.048 24.0537 30.008 23.8897 29.928C23.7297 29.844 23.6057 29.728 23.5177 29.58V30.714C23.5177 30.834 23.4777 30.93 23.3977 31.002C23.3177 31.074 23.2117 31.11 23.0797 31.11C22.9397 31.11 22.8257 31.072 22.7377 30.996C22.6537 30.92 22.6117 30.82 22.6117 30.696V27.42C22.6117 27.292 22.6517 27.19 22.7317 27.114C22.8157 27.034 22.9257 26.994 23.0617 26.994C23.1977 26.994 23.3057 27.034 23.3857 27.114C23.4657 27.19 23.5057 27.292 23.5057 27.42V27.468C23.5937 27.316 23.7197 27.198 23.8837 27.114C24.0477 27.026 24.2317 26.982 24.4357 26.982ZM24.1717 29.358C24.3837 29.358 24.5477 29.288 24.6637 29.148C24.7797 29.004 24.8377 28.798 24.8377 28.53C24.8377 28.258 24.7797 28.048 24.6637 27.9C24.5477 27.748 24.3837 27.672 24.1717 27.672C23.9597 27.672 23.7957 27.746 23.6797 27.894C23.5637 28.038 23.5057 28.246 23.5057 28.518C23.5057 28.786 23.5637 28.994 23.6797 29.142C23.7957 29.286 23.9597 29.358 24.1717 29.358Z" fill="white"/>
</svg>
