<svg width="48" height="48" viewBox="0 0 48 48" fill="none" xmlns="http://www.w3.org/2000/svg">
<rect width="48" height="48" rx="5" fill="#FA991C"/>
<path d="M12 40C11.4477 40 11 39.5523 11 39L11 21C11 20.4477 11.4477 20 12 20H37C37.5523 20 38 20.4477 38 21V39C38 39.5523 37.5523 40 37 40H12Z" fill="#FA991C" stroke="white" stroke-width="2"/>
<path d="M29.9083 29.1154C30.6032 29.4944 30.6032 30.4921 29.9083 30.8712L21.9966 35.1866C21.3303 35.5501 20.5178 35.0678 20.5178 34.3087V25.6778C20.5178 24.9188 21.3303 24.4364 21.9966 24.7999L29.9083 29.1154Z" fill="white"/>
<path d="M10.6585 13.2279L35.163 8.27534C35.7043 8.16593 36.2319 8.51607 36.3413 9.05741L37.3318 13.9583L10.8669 19.3071L9.87639 14.4062C9.76698 13.8648 10.1171 13.3373 10.6585 13.2279Z" fill="#FA991C" stroke="white" stroke-width="2"/>
<path d="M14.5848 12.1807L18.6874 17.3363" stroke="white" stroke-width="2"/>
<path d="M21.5848 11.1807L25.813 16.9576" stroke="white" stroke-width="2"/>
<path d="M28.5848 9.18074L32.813 14.9576" stroke="white" stroke-width="2"/>
</svg>
