<svg width="48" height="48" viewBox="0 0 48 48" fill="none" xmlns="http://www.w3.org/2000/svg">
<rect width="48" height="48" rx="5" fill="#FA991C"/>
<path d="M33.5709 26.3928C34.3468 28.1158 35.1328 29.8477 35.997 31.3314C35.9278 34.4395 34.6499 36.391 32.6646 37.6245C30.5452 38.9415 27.5169 39.5 24 39.5C20.4831 39.5 17.4548 38.9415 15.3354 37.6245C13.3458 36.3883 12.0666 34.431 12.0025 31.3111C12.8019 29.8157 13.5373 28.156 14.2625 26.5194C14.3189 26.3923 14.3752 26.2652 14.4314 26.1384C15.2576 24.2761 16.0793 22.4545 17.0046 20.8416C18.875 17.5812 20.9803 15.5 24 15.5C26.9975 15.5 29.1052 17.6953 30.9908 21.055C31.8855 22.6492 32.6813 24.4169 33.4798 26.1906C33.5102 26.258 33.5405 26.3254 33.5709 26.3928Z" fill="#FA991C" stroke="white" stroke-width="2"/>
<path d="M20.5 13.5H27.5" stroke="#FA991C" stroke-linecap="round"/>
<path d="M23.917 30.609C24.007 30.741 24.052 30.87 24.052 30.996C24.052 31.164 23.983 31.302 23.845 31.41C23.713 31.518 23.557 31.572 23.377 31.572C23.263 31.572 23.152 31.545 23.044 31.491C22.936 31.437 22.846 31.353 22.774 31.239L21.586 29.475C21.484 29.319 21.376 29.208 21.262 29.142C21.148 29.07 21.004 29.034 20.83 29.034H20.101V30.852C20.101 31.068 20.038 31.239 19.912 31.365C19.792 31.491 19.627 31.554 19.417 31.554C19.201 31.554 19.03 31.491 18.904 31.365C18.778 31.239 18.715 31.068 18.715 30.852V25.812C18.715 25.602 18.772 25.44 18.886 25.326C19 25.212 19.162 25.155 19.372 25.155H21.631C22.375 25.155 22.936 25.32 23.314 25.65C23.698 25.974 23.89 26.445 23.89 27.063C23.89 27.549 23.755 27.954 23.485 28.278C23.215 28.602 22.834 28.815 22.342 28.917C22.522 28.953 22.681 29.025 22.819 29.133C22.963 29.235 23.101 29.385 23.233 29.583L23.917 30.609ZM21.424 27.972C21.826 27.972 22.117 27.903 22.297 27.765C22.477 27.621 22.567 27.399 22.567 27.099C22.567 26.793 22.477 26.571 22.297 26.433C22.117 26.295 21.826 26.226 21.424 26.226H20.083V27.972H21.424ZM27.6535 26.973C28.0315 26.973 28.3675 27.072 28.6615 27.27C28.9615 27.462 29.1925 27.735 29.3545 28.089C29.5225 28.437 29.6065 28.839 29.6065 29.295C29.6065 29.751 29.5225 30.153 29.3545 30.501C29.1925 30.843 28.9645 31.107 28.6705 31.293C28.3765 31.479 28.0375 31.572 27.6535 31.572C27.3535 31.572 27.0805 31.512 26.8345 31.392C26.5945 31.266 26.4085 31.092 26.2765 30.87V32.571C26.2765 32.751 26.2165 32.895 26.0965 33.003C25.9765 33.111 25.8175 33.165 25.6195 33.165C25.4095 33.165 25.2385 33.108 25.1065 32.994C24.9805 32.88 24.9175 32.73 24.9175 32.544V27.63C24.9175 27.438 24.9775 27.285 25.0975 27.171C25.2235 27.051 25.3885 26.991 25.5925 26.991C25.7965 26.991 25.9585 27.051 26.0785 27.171C26.1985 27.285 26.2585 27.438 26.2585 27.63V27.702C26.3905 27.474 26.5795 27.297 26.8255 27.171C27.0715 27.039 27.3475 26.973 27.6535 26.973ZM27.2575 30.537C27.5755 30.537 27.8215 30.432 27.9955 30.222C28.1695 30.006 28.2565 29.697 28.2565 29.295C28.2565 28.887 28.1695 28.572 27.9955 28.35C27.8215 28.122 27.5755 28.008 27.2575 28.008C26.9395 28.008 26.6935 28.119 26.5195 28.341C26.3455 28.557 26.2585 28.869 26.2585 29.277C26.2585 29.679 26.3455 29.991 26.5195 30.213C26.6935 30.429 26.9395 30.537 27.2575 30.537Z" fill="white"/>
<path d="M18.9905 10.5408C18.5627 9.87525 19.0405 9 19.8317 9H28.1683C28.9595 9 29.4373 9.87525 29.0095 10.5408L27.7238 12.5408C27.5398 12.827 27.2229 13 26.8826 13H21.1174C20.7771 13 20.4602 12.827 20.2762 12.5408L18.9905 10.5408Z" fill="white"/>
<path d="M21 14L27 14" stroke="white" stroke-linecap="round"/>
<path d="M26.937 13.978L28.597 13.6941" stroke="white" stroke-linecap="round"/>
<path d="M27 14L28.8265 15.1869" stroke="white" stroke-linecap="round"/>
</svg>
