<svg width="48" height="48" viewBox="0 0 48 48" fill="none" xmlns="http://www.w3.org/2000/svg">
<rect width="48" height="48" rx="5" fill="#FA991C"/>
<path d="M7 10L7.67354 12.0729H9.85317L8.08981 13.3541L8.76336 15.4271L7 14.1459L5.23664 15.4271L5.91019 13.3541L4.14683 12.0729H6.32646L7 10Z" fill="white"/>
<path d="M17 6L17.6735 8.07295H19.8532L18.0898 9.3541L18.7634 11.4271L17 10.1459L15.2366 11.4271L15.9102 9.3541L14.1468 8.07295H16.3265L17 6Z" fill="white"/>
<path d="M28.8532 6L29.5267 8.07295H31.7063L29.943 9.3541L30.6165 11.4271L28.8532 10.1459L27.0898 11.4271L27.7634 9.3541L26 8.07295H28.1796L28.8532 6Z" fill="white"/>
<path d="M40 10L40.6735 12.0729H42.8532L41.0898 13.3541L41.7634 15.4271L40 14.1459L38.2366 15.4271L38.9102 13.3541L37.1468 12.0729H39.3265L40 10Z" fill="white"/>
<path d="M12.5208 16.9064C12.8901 16.3409 13.5199 16 14.1953 16H33.8047C34.4801 16 35.1099 16.3409 35.4792 16.9064L38.1526 21H9.84742L12.5208 16.9064Z" fill="#FA991C" stroke="white" stroke-width="2"/>
<line x1="18" y1="25" x2="30" y2="25" stroke="white" stroke-width="2" stroke-linecap="round"/>
<path d="M9 22V39H39V22" stroke="white" stroke-width="2" stroke-linejoin="round"/>
</svg>
