<svg width="48" height="48" viewBox="0 0 48 48" fill="none" xmlns="http://www.w3.org/2000/svg">
<rect width="48" height="48" rx="5" fill="#FA991C"/>
<path d="M16 16H38C39.1046 16 40 16.8954 40 18V28C40 29.1046 39.1046 30 38 30H16C14.8954 30 14 29.1046 14 28V18C14 16.8954 14.8954 16 16 16Z" fill="#FA991C" stroke="white" stroke-width="2"/>
<path d="M11 21H33C34.1046 21 35 21.8954 35 23V33C35 34.1046 34.1046 35 33 35H11C9.89543 35 9 34.1046 9 33V23C9 21.8954 9.89543 21 11 21Z" fill="#FA991C" stroke="white" stroke-width="2"/>
<circle cx="22" cy="28" r="3" fill="#FA991C" stroke="white" stroke-width="2"/>
<circle cx="11" cy="23" r="2" fill="#FA991C" stroke="white" stroke-width="2"/>
<path d="M35 23.5C35 24.6046 34.1046 25.5 33 25.5C31.8954 25.5 31 24.6046 31 23.5C31 22.3954 31.8954 21.5 33 21.5C34.1046 21.5 35 22.3954 35 23.5Z" fill="#FA991C" stroke="white" stroke-width="2"/>
<circle cx="11" cy="33" r="2" fill="#FA991C" stroke="white" stroke-width="2"/>
<circle cx="33" cy="33" r="2" fill="#FA991C" stroke="white" stroke-width="2"/>
</svg>
