<svg width="48" height="48" viewBox="0 0 48 48" fill="none" xmlns="http://www.w3.org/2000/svg">
<rect width="48" height="48" rx="5" fill="#FA991C"/>
<path d="M13.8364 16L34.1636 16L36.8752 39L11.1248 39L13.8364 16Z" fill="#FA991C" stroke="white" stroke-width="2"/>
<path d="M17 15C17 6.74408 31 7.26008 31 15" stroke="white" stroke-width="2"/>
<path d="M31 21C31 22.1046 30.1046 23 29 23C27.8954 23 27 22.1046 27 21C27 19.8954 27.8954 19 29 19C30.1046 19 31 19.8954 31 21Z" fill="white"/>
<path d="M21 21C21 22.1046 20.1046 23 19 23C17.8954 23 17 22.1046 17 21C17 19.8954 17.8954 19 19 19C20.1046 19 21 19.8954 21 21Z" fill="white"/>
</svg>
