<svg width="48" height="48" viewBox="0 0 48 48" fill="none" xmlns="http://www.w3.org/2000/svg">
<rect width="48" height="48" rx="5" fill="#FA991C"/>
<path d="M9.32194 9.59874L7.16804 20.1162C7.06054 20.6411 7.16419 21.1966 7.4905 21.6216C9.94615 24.8201 11.9465 23.9566 13.5451 22.4531C14.3684 21.6787 15.6045 21.6051 16.4327 22.3742C17.9124 23.748 19.4643 24.6135 22.2029 22.4124C23.1103 21.6832 24.4282 21.6995 25.3315 22.4337C27.3451 24.0703 29.2239 24.3102 31.2431 22.7595C32.278 21.9648 33.7827 21.9927 34.7538 22.8642C36.7288 24.6366 38.5106 24.4189 40.5383 21.6136C40.8452 21.189 40.9411 20.6492 40.836 20.1361L38.6781 9.59874C38.4875 8.66815 37.6686 8 36.7187 8H11.2813C10.3314 8 9.51252 8.66815 9.32194 9.59874Z" stroke="white" stroke-width="2"/>
<path d="M10 24V37C10 38.1046 10.8954 39 12 39H36C37.1046 39 38 38.1046 38 37V24" stroke="white" stroke-width="2" stroke-linecap="round"/>
<rect x="15" y="27" width="8" height="12" rx="3" fill="#FA991C" stroke="white" stroke-width="2"/>
<path d="M28 31H32" stroke="white" stroke-width="2" stroke-linecap="round"/>
<path d="M30 29V33" stroke="white" stroke-width="2" stroke-linecap="round"/>
</svg>
