<svg width="48" height="48" viewBox="0 0 48 48" fill="none" xmlns="http://www.w3.org/2000/svg">
<rect width="48" height="48" rx="5" fill="#FA991C"/>
<rect x="11" y="22" width="26" height="9" rx="3" fill="#FA991C" stroke="white" stroke-width="2"/>
<path d="M17 26.5C17 27.3284 16.3284 28 15.5 28C14.6716 28 14 27.3284 14 26.5C14 25.6716 14.6716 25 15.5 25C16.3284 25 17 25.6716 17 26.5Z" fill="white"/>
<path d="M14 19.5C14 20.3284 13.1046 21 12 21C10.8954 21 10 20.3284 10 19.5C10 18.6716 10.8954 18 12 18C13.1046 18 14 18.6716 14 19.5Z" fill="white"/>
<rect x="15" y="31" width="4" height="4" rx="1" fill="#FA991C" stroke="white" stroke-width="2"/>
<path d="M29 32C29 31.4477 29.4477 31 30 31H32C32.5523 31 33 31.4477 33 32V34C33 34.5523 32.5523 35 32 35H30C29.4477 35 29 34.5523 29 34V32Z" fill="#FA991C" stroke="white" stroke-width="2"/>
<path d="M34 26.5C34 27.3284 33.3284 28 32.5 28C31.6716 28 31 27.3284 31 26.5C31 25.6716 31.6716 25 32.5 25C33.3284 25 34 25.6716 34 26.5Z" fill="white"/>
<path d="M38 19.5C38 20.3284 37.1046 21 36 21C34.8954 21 34 20.3284 34 19.5C34 18.6716 34.8954 18 36 18C37.1046 18 38 18.6716 38 19.5Z" fill="white"/>
<path d="M15.5375 15.4117C15.8179 14.0094 17.0492 13 18.4792 13H22.9H29.2739C30.5987 13 31.7667 13.869 32.1474 15.138L32.9286 17.7423L33.7802 22H14.2198L15.0806 17.6961L15.5375 15.4117Z" fill="#FA991C" stroke="white" stroke-width="2"/>
</svg>
