<svg width="48" height="48" viewBox="0 0 48 48" fill="none" xmlns="http://www.w3.org/2000/svg">
<rect x="9.15527e-05" y="3.05176e-05" width="48" height="48" rx="5" fill="#FA991C"/>
<path d="M32.5369 35.4491L28.9506 38.0021L23.8563 24.8289L23.7648 24.5921L23.5714 24.4277L12.7101 15.1931L16.2969 12.6398L30.3006 19.929L32.5369 35.4491Z" fill="#FA991C" stroke="white" stroke-width="2"/>
<path d="M17.9529 35.493L14.9137 37.6565L13.8806 32.1573L13.7967 31.7108L13.4053 31.4803L8.38399 28.5225L11.4332 26.3519L18.2066 28.5453L17.9529 35.493Z" fill="#FA991C" stroke="white" stroke-width="2"/>
<path d="M34.8227 13.6463C36.0119 12.7988 37.6713 13.1466 38.42 14.4003C39.0878 15.5185 38.7852 16.9621 37.7246 17.718L29.0399 23.9076L18.5409 31.3901L15.639 27.3184L34.8227 13.6463Z" fill="#FA991C" stroke="white" stroke-width="2"/>
<rect x="17.3205" y="27.3479" width="3" height="3" transform="rotate(54.5228 17.3205 27.3479)" fill="#FA991C"/>
<path d="M25.9319 18.7547L27.907 19.803L29.6481 22.246L29.9945 24.4551L25.9228 27.357L25.1692 25.4381L23.4281 22.9951L21.8601 21.6566L25.9319 18.7547Z" fill="#FA991C"/>
</svg>
