<svg width="48" height="48" viewBox="0 0 48 48" fill="none" xmlns="http://www.w3.org/2000/svg">
<rect width="48" height="48" rx="5" fill="#45483D"/>
<path d="M16.1771 39C7.67739 37.8293 4.10418 34.2394 6.97868 31.3488C9.85318 28.4581 8.12849 16.8968 12.7277 11.6937C17.3268 6.49049 30.5495 7.05516 34.5738 11.6937C38.598 16.3322 38.0231 28.5671 41.4725 32.614C44.9219 36.6609 30.3251 39 30.3251 39H16.1771Z" fill="white" stroke="white"/>
<rect x="15.5" y="16.5" width="16" height="26" rx="8" fill="#45483D" stroke="white"/>
<path d="M13 26.5C13 24.5755 15 24 15 24V29C15 29 13 28.4245 13 26.5Z" fill="#45483D"/>
<path d="M34 26.5C34 28.4245 32 29 32 29V24C32 24 34 24.5755 34 26.5Z" fill="#45483D"/>
<path d="M18 27C18.4317 26.48 19.4215 26.4066 20 27" stroke="white" stroke-linecap="round"/>
<path d="M26 31C24.7992 32.4644 22.2757 32.4626 21 31" stroke="white" stroke-linecap="round"/>
<path d="M27 27C27.5772 26.4147 28.569 26.4751 29 27" stroke="white" stroke-linecap="round"/>
<path d="M24.3877 22.1766C19.1472 24.2768 10.5804 20.9183 10.5804 20.9183L33.2724 11.8244C33.2724 11.8244 29.6282 20.0765 24.3877 22.1766Z" fill="white"/>
</svg>
