<svg width="32" height="32" viewBox="0 0 32 32" fill="none" xmlns="http://www.w3.org/2000/svg">
<path d="M28.5 16C28.5 20.6944 24.6944 24.5 20 24.5C15.3056 24.5 11.5 20.6944 11.5 16C11.5 11.3056 15.3056 7.5 20 7.5C24.6944 7.5 28.5 11.3056 28.5 16Z" stroke="white" stroke-width="3"/>
<path d="M22.2816 17.312C22.2816 17.744 22.1322 18.112 21.8336 18.416C21.5402 18.72 21.1429 18.92 20.6416 19.016V19.408C20.6416 19.5733 20.5882 19.7067 20.4816 19.808C20.3802 19.9093 20.2469 19.96 20.0816 19.96C19.9162 19.96 19.7802 19.9093 19.6736 19.808C19.5722 19.7067 19.5216 19.5733 19.5216 19.408V19.048C18.9296 18.9733 18.4229 18.8 18.0016 18.528C17.9056 18.4693 17.8362 18.4027 17.7936 18.328C17.7562 18.2533 17.7376 18.1547 17.7376 18.032C17.7376 17.872 17.7829 17.7333 17.8736 17.616C17.9696 17.4987 18.0816 17.44 18.2096 17.44C18.2736 17.44 18.3376 17.4507 18.4016 17.472C18.4656 17.4933 18.5482 17.5333 18.6496 17.592C18.8842 17.72 19.1029 17.8107 19.3056 17.864C19.5082 17.9173 19.7242 17.944 19.9536 17.944C20.2362 17.944 20.4496 17.8987 20.5936 17.808C20.7429 17.712 20.8176 17.5707 20.8176 17.384C20.8176 17.272 20.7722 17.1813 20.6816 17.112C20.5962 17.0373 20.4869 16.9787 20.3536 16.936C20.2256 16.8933 20.0362 16.84 19.7856 16.776C19.3856 16.6747 19.0576 16.5733 18.8016 16.472C18.5456 16.3653 18.3242 16.2027 18.1376 15.984C17.9509 15.76 17.8576 15.4613 17.8576 15.088C17.8576 14.6613 18.0069 14.2907 18.3056 13.976C18.6042 13.6613 18.9989 13.4533 19.4896 13.352V12.952C19.4896 12.792 19.5429 12.6613 19.6496 12.56C19.7562 12.4533 19.8896 12.4 20.0496 12.4C20.2149 12.4 20.3482 12.4507 20.4496 12.552C20.5562 12.6533 20.6096 12.7867 20.6096 12.952V13.328C21.0522 13.3973 21.4842 13.5653 21.9056 13.832C22.0016 13.896 22.0682 13.968 22.1056 14.048C22.1482 14.1227 22.1696 14.216 22.1696 14.328C22.1696 14.488 22.1216 14.6267 22.0256 14.744C21.9296 14.8613 21.8176 14.92 21.6896 14.92C21.6256 14.92 21.5642 14.9093 21.5056 14.888C21.4469 14.8667 21.3616 14.8267 21.2496 14.768C21.2122 14.7467 21.1296 14.704 21.0016 14.64C20.8736 14.5707 20.7349 14.5173 20.5856 14.48C20.4416 14.4373 20.2869 14.416 20.1216 14.416C19.8816 14.416 19.6869 14.4693 19.5376 14.576C19.3882 14.6773 19.3136 14.816 19.3136 14.992C19.3136 15.1627 19.3989 15.2907 19.5696 15.376C19.7402 15.4613 20.0096 15.5467 20.3776 15.632C20.7722 15.7227 21.0949 15.8187 21.3456 15.92C21.6016 16.0213 21.8202 16.184 22.0016 16.408C22.1882 16.632 22.2816 16.9333 22.2816 17.312Z" fill="white"/>
<path d="M3 16H7" stroke="white" stroke-width="3" stroke-linecap="round"/>
<path d="M5 11L8.5 11" stroke="white" stroke-width="3" stroke-linecap="round"/>
<path d="M5 21H8.5" stroke="white" stroke-width="3" stroke-linecap="round"/>
</svg>
